<svg xmlns="http://www.w3.org/2000/svg" xmlns:xlink="http://www.w3.org/1999/xlink" viewBox="0 0 105.08 64.5" xmlns:v="https://vecta.io/nano"><path d="M38.6 1.88L36.98 0s.3.88.32 3.48-2.03 2.7-2.03 2.7H24.83s-2.05-.1-2.03-2.7.32-3.48.32-3.48L21.5 1.88c-1.23 1.43-1.46 3.52-.44 5.09.67 1.02 1.84 1.87 3.9 1.87h10.15c2.06 0 3.23-.84 3.9-1.87 1.05-1.57.82-3.66-.41-5.09zm-13.06 8.29l2.12.64 1.01 1.02h-2.04l-1.09-1.66zm9.04 0l-2.13.64-1.01 1.02h2.04l1.1-1.66zm-.67 9l3.34.29-4.9-6.44-2.3 1.32-2.3-1.32-4.9 6.44 3.34-.29-5.41 5.98 1.55 4.83 7.71 5.52 7.71-5.52 1.55-4.83-5.39-5.98zm-5.52-1.67l1.67-1.29 1.67 1.29h-3.34z" fill="#ff364e"/><path d="M48.2 24.13c-3.68 0-6.68-2.76-6.68-6.66s3-6.64 6.68-6.64 6.64 2.74 6.64 6.64-2.96 6.66-6.64 6.66zm0-2.89c2.07 0 3.42-1.5 3.42-3.77s-1.35-3.77-3.42-3.77-3.44 1.46-3.44 3.77 1.33 3.77 3.44 3.77zm19.14-3.74c0 3.85-2.66 6.49-6.81 6.49h-4.87V11.01h4.87c4.15 0 6.81 2.63 6.81 6.49zm-7.01 3.76c2.39 0 3.79-1.37 3.79-3.76s-1.41-3.79-3.79-3.79h-1.5v7.55h1.5zm7.87-10.25h3.16V24H68.2V11.01zm16.15 0V24h-3.16l-5.29-8.01V24h-3.16V11.01h3.16l5.29 8.05v-8.05h3.16z" fill="#eff4f9"/><g fill="#cdd4db"><path d="m.84,48.04c-.26-.11-.47-.28-.62-.49s-.22-.46-.22-.73h.85c.02.21.1.38.25.52.15.14.35.2.62.2s.49-.07.64-.2.23-.3.23-.51c0-.16-.05-.3-.14-.4-.1-.1-.21-.18-.36-.24-.14-.06-.34-.12-.59-.18-.32-.08-.58-.17-.77-.25-.2-.09-.37-.22-.51-.4-.14-.18-.21-.42-.21-.73,0-.28.07-.53.21-.74.14-.21.34-.37.59-.48.25-.11.54-.17.88-.17.47,0,.86.12,1.16.35.3.24.47.56.5.97h-.88c-.01-.18-.1-.33-.25-.45-.15-.13-.36-.19-.61-.19-.23,0-.42.06-.56.17-.15.12-.22.29-.22.5,0,.15.05.27.14.37.09.1.21.17.35.23.14.06.33.12.57.18.32.09.58.18.79.27.2.09.38.23.52.41.14.18.21.43.21.74,0,.25-.07.48-.2.7-.13.22-.33.4-.58.53s-.55.2-.9.2c-.33,0-.62-.06-.88-.17Z"/><use xlink:href="#B"/><use xlink:href="#C"/><use xlink:href="#C" x="2.68"/><path d="M17.66 44.3l-2.37 5.67h-.83l.78-1.88-1.52-3.79h.89l1.08 2.94 1.13-2.94h.83zm1.48 2.9l-.85 1.93h-.52l.5-1.93h.87zm5.99-2.9l-2.37 5.67h-.83l.78-1.88-1.52-3.79h.89l1.08 2.94 1.13-2.94h.83z"/><use xlink:href="#B" x="21.39"/><path d="M33.69 44.3v3.86h-.8v-.46c-.13.16-.29.28-.49.38a1.58 1.58 0 0 1-.65.14 1.71 1.71 0 0 1-.82-.19c-.24-.13-.43-.31-.57-.56s-.21-.55-.21-.9V44.3h.79v2.15c0 .35.09.61.26.79s.41.28.71.28.54-.09.71-.28c.17-.18.26-.45.26-.79V44.3h.8zm5.65.13a1.41 1.41 0 0 1 .55.56c.14.25.2.55.2.9v2.28h-.79v-2.16c0-.34-.09-.61-.26-.79s-.41-.28-.71-.28-.54.09-.71.28c-.17.18-.26.45-.26.79v2.16h-.8v-5.18h.8v1.77c.14-.16.31-.29.51-.38s.44-.13.68-.13c.29 0 .56.06.79.19zm1.74.76a1.78 1.78 0 0 1 .66-.7 1.72 1.72 0 0 1 .92-.25c.3 0 .57.06.79.18.23.12.41.27.54.44v-.56h.81v3.86h-.81v-.57c-.14.18-.32.33-.55.46s-.5.18-.8.18c-.33 0-.63-.09-.91-.26s-.49-.41-.65-.71-.24-.65-.24-1.04.08-.73.24-1.03zm2.75.35a1.1 1.1 0 0 0-.43-.45c-.18-.1-.37-.15-.57-.15a1.13 1.13 0 0 0-.57.15c-.18.1-.32.25-.43.44s-.16.42-.16.69.05.5.16.7.25.35.43.46c.18.1.37.16.57.16a1.13 1.13 0 0 0 .57-.15 1.1 1.1 0 0 0 .43-.45c.11-.2.16-.43.16-.7s-.05-.5-.16-.69zm3.51 1.91l1.09-3.14h.85l-1.47 3.86h-.95l-1.46-3.86h.85l1.09 3.14zm6.05-.92h-2.95c.02.31.14.56.34.74.21.19.46.28.76.28.43 0 .73-.18.91-.54h.86a1.73 1.73 0 0 1-.63.87c-.3.22-.68.34-1.14.34-.37 0-.7-.08-.99-.25s-.52-.4-.69-.7-.25-.65-.25-1.05.08-.75.24-1.05a1.76 1.76 0 0 1 .68-.7 2.06 2.06 0 0 1 1-.25c.37 0 .69.08.97.24s.51.38.66.67c.16.29.24.62.24.99 0 .15 0 .28-.03.39zm-.8-.64a.92.92 0 0 0-.31-.71c-.21-.18-.46-.27-.76-.27-.28 0-.51.09-.71.26s-.31.41-.35.71h2.14zm4.78-1.47a1.73 1.73 0 0 1 .79-.18c.34 0 .65.08.92.25a1.83 1.83 0 0 1 .65.7c.16.3.24.65.24 1.03s-.08.73-.24 1.04-.38.54-.66.71-.58.26-.92.26c-.3 0-.56-.06-.79-.18s-.41-.27-.55-.45v.56h-.8v-5.18h.8v1.9c.13-.19.32-.34.56-.46zm1.62 1.11c-.11-.19-.25-.34-.43-.44s-.37-.15-.58-.15a1.13 1.13 0 0 0-.57.15 1.1 1.1 0 0 0-.43.45c-.11.2-.16.43-.16.69s.05.5.16.7a1.1 1.1 0 0 0 .43.45c.18.1.37.15.57.15s.4-.05.58-.16.32-.26.43-.46.17-.43.17-.7-.05-.5-.17-.69zm5.28 1h-2.95c.02.31.14.56.34.74s.46.28.76.28c.43 0 .73-.18.91-.54h.86a1.73 1.73 0 0 1-.63.87c-.3.22-.68.34-1.14.34-.37 0-.7-.08-.99-.25s-.52-.4-.69-.7-.25-.65-.25-1.05.08-.75.24-1.05a1.76 1.76 0 0 1 .68-.7 2.06 2.06 0 0 1 1-.25c.37 0 .69.08.97.24s.51.38.66.67c.16.29.24.62.24.99 0 .15 0 .28-.03.39zm-.81-.64a.92.92 0 0 0-.31-.71c-.21-.18-.46-.27-.76-.27-.28 0-.51.09-.71.26s-.31.41-.35.71h2.13zm5.13.64h-2.95c.02.31.14.56.34.74.21.19.46.28.76.28.43 0 .73-.18.91-.54h.86a1.73 1.73 0 0 1-.63.87c-.3.22-.68.34-1.14.34-.37 0-.7-.08-.99-.25s-.52-.4-.69-.7-.25-.65-.25-1.05.08-.75.24-1.05a1.76 1.76 0 0 1 .68-.7c.29-.17.63-.25 1-.25s.69.08.97.24.51.38.67.67.24.62.24.99c0 .15 0 .28-.03.39zm-.8-.64c0-.29-.11-.53-.32-.71s-.46-.27-.76-.27c-.28 0-.51.09-.71.26s-.31.41-.35.71h2.14zm4.38-1.46c.24.13.43.31.56.56s.2.55.2.9v2.28h-.79v-2.16c0-.34-.09-.61-.26-.79s-.41-.28-.71-.28-.54.09-.71.28c-.17.18-.26.45-.26.79v2.16h-.8v-3.86h.8v.44c.13-.16.3-.28.5-.37s.42-.13.65-.13a1.71 1.71 0 0 1 .82.19zm4.95-.01a1.73 1.73 0 0 1 .79-.18c.34 0 .65.08.92.25a1.83 1.83 0 0 1 .65.7c.16.3.24.65.24 1.03s-.08.73-.24 1.04a1.79 1.79 0 0 1-.65.71c-.28.17-.58.26-.92.26-.3 0-.56-.06-.79-.18s-.41-.27-.55-.45v.56h-.8v-5.18h.8v1.9a1.51 1.51 0 0 1 .56-.46zm1.62 1.11c-.11-.19-.25-.34-.43-.44s-.37-.15-.58-.15a1.13 1.13 0 0 0-.57.15 1.1 1.1 0 0 0-.43.45c-.11.2-.16.43-.16.69s.05.5.16.7a1.1 1.1 0 0 0 .43.45c.18.1.37.15.57.15s.4-.05.58-.16.33-.26.43-.46c.11-.2.16-.43.16-.7s-.05-.5-.16-.69zm2.57-2.55v5.18h-.8v-5.18h.8zm1.74 4.99c-.29-.17-.53-.4-.69-.7s-.25-.65-.25-1.05.09-.74.26-1.04a1.77 1.77 0 0 1 .71-.7 2.09 2.09 0 0 1 1-.25 1.98 1.98 0 0 1 1 .25c.3.16.53.4.71.7.17.3.26.65.26 1.04a1.99 1.99 0 0 1-.27 1.04 1.86 1.86 0 0 1-.72.7c-.31.17-.64.25-1.01.25s-.69-.08-.99-.25zm1.56-.59a1.16 1.16 0 0 0 .44-.44c.11-.2.17-.43.17-.71s-.05-.52-.16-.71-.25-.34-.43-.44-.37-.15-.57-.15a1.13 1.13 0 0 0-.57.15c-.17.1-.31.24-.42.44-.1.19-.15.43-.15.71 0 .42.11.74.32.96.21.23.48.34.8.34.21 0 .4-.05.58-.15zm2.19-2.2c.16-.3.38-.53.67-.7s.61-.25.98-.25c.47 0 .85.11 1.16.33s.51.54.62.95h-.86c-.07-.19-.18-.34-.34-.45-.15-.11-.35-.16-.58-.16a.96.96 0 0 0-.78.35c-.19.23-.29.55-.29.97s.1.74.29.97a.96.96 0 0 0 .78.35c.46 0 .77-.2.92-.61h.86c-.11.39-.32.7-.63.93s-.69.35-1.15.35c-.37 0-.7-.08-.98-.25s-.51-.4-.67-.7-.24-.65-.24-1.05.08-.75.24-1.05zm5.75 1.06l1.78 1.92h-1.08l-1.43-1.66v1.66h-.8v-5.18h.8v3.01l1.4-1.69h1.11l-1.78 1.93zm5.86.29h-2.95c.02.31.14.56.34.74s.46.28.76.28c.43 0 .73-.18.91-.54h.86a1.73 1.73 0 0 1-.63.87c-.3.22-.68.34-1.14.34-.37 0-.7-.08-.99-.25s-.52-.4-.69-.7-.25-.65-.25-1.05.08-.75.24-1.05a1.76 1.76 0 0 1 .68-.7 2.06 2.06 0 0 1 1-.25c.37 0 .69.08.97.24s.51.38.67.67.24.62.24.99c0 .15 0 .28-.03.39zm-.81-.64a.92.92 0 0 0-.31-.71c-.21-.18-.46-.27-.76-.27-.28 0-.51.09-.71.26s-.31.41-.35.71h2.13zm1.6-.7a1.78 1.78 0 0 1 .66-.7c.28-.17.59-.25.93-.25a1.84 1.84 0 0 1 .75.16c.25.11.44.26.58.44v-1.86h.8v5.18h-.8v-.58a1.44 1.44 0 0 1-.54.46c-.23.12-.5.18-.79.18-.34 0-.64-.09-.92-.26a1.81 1.81 0 0 1-.66-.71c-.16-.31-.24-.65-.24-1.04s.08-.73.24-1.03zm2.75.35a1.1 1.1 0 0 0-.43-.45c-.18-.1-.37-.15-.57-.15a1.13 1.13 0 0 0-.57.15c-.18.1-.32.25-.43.44s-.16.42-.16.69.05.5.16.7.25.35.43.46c.18.1.37.16.57.16a1.13 1.13 0 0 0 .57-.15 1.1 1.1 0 0 0 .43-.45c.11-.2.16-.43.16-.7s-.05-.5-.16-.69zm2.26 2.52a.49.49 0 0 1-.15-.36c0-.14.05-.27.15-.36a.49.49 0 0 1 .36-.15.49.49 0 0 1 .51.51c0 .14-.05.27-.15.36a.49.49 0 0 1-.36.15c-.14 0-.27-.05-.36-.15zm.76-4.77l-.09 3.4h-.67l-.09-3.4h.85z"/></g><g fill="#c0c5cc"><path d="M13.83 51.43l-.92 1.77v1.01h-.46V53.2l-.92-1.77h.51l.64 1.36.64-1.36h.5z"/><use xlink:href="#D"/><use xlink:href="#E"/><use xlink:href="#F"/><path d="m23.81,52.07c.11-.06.24-.09.39-.09v.47h-.12c-.18,0-.31.04-.41.14-.09.09-.14.25-.14.47v1.16h-.46v-2.2h.46v.32c.07-.11.16-.2.27-.26Z"/><use xlink:href="#G"/><use xlink:href="#E" x="11.39"/><use xlink:href="#H"/><use xlink:href="#F" x="12.94"/><path d="M36.81 52.08c.13-.07.28-.1.45-.1.19 0 .37.05.53.14s.28.23.37.4.14.37.14.59-.05.42-.14.59a1.13 1.13 0 0 1-.37.41c-.16.1-.33.15-.53.15-.17 0-.32-.03-.45-.1a.8.8 0 0 1-.31-.26v.32h-.46v-2.96h.46v1.08c.08-.11.18-.19.32-.26zm.93.63c-.06-.11-.15-.19-.25-.25a.63.63 0 0 0-.33-.09c-.12 0-.22.03-.33.09a.63.63 0 0 0-.25.26c-.06.11-.09.24-.09.4s.03.28.09.4c.06.11.15.2.25.26a.63.63 0 0 0 .33.09.63.63 0 0 0 .33-.09c.1-.06.19-.15.25-.26s.09-.25.09-.4-.03-.28-.09-.39zm1.47-1.46v2.96h-.46v-2.96h.46z"/><use xlink:href="#G" x="15.18"/><use xlink:href="#I"/><use xlink:href="#D" x="30.61"/><use xlink:href="#F" x="28.01"/><path d="M51.09 52.51c.09-.17.22-.3.38-.4.16-.09.35-.14.56-.14.27 0 .49.06.66.19s.29.31.35.54h-.49a.55.55 0 0 0-.19-.26c-.09-.07-.2-.09-.33-.09-.19 0-.34.07-.45.2s-.17.32-.17.55.06.42.17.56c.11.13.26.2.45.2.26 0 .44-.12.52-.35h.49a.94.94 0 0 1-.36.53c-.18.13-.39.2-.66.2-.21 0-.4-.05-.56-.14a.98.98 0 0 1-.38-.4c-.09-.17-.14-.37-.14-.6s.05-.43.14-.6z"/><path d="m53.49,52.51c.09-.17.22-.3.38-.4.16-.09.35-.14.56-.14.27,0,.49.06.66.19.17.13.29.31.35.54h-.49c-.04-.11-.1-.19-.19-.26s-.2-.09-.33-.09c-.19,0-.34.07-.45.2s-.17.32-.17.55.06.42.17.56c.11.13.26.2.45.2.26,0,.44-.12.52-.35h.49c-.06.22-.18.4-.36.53-.18.13-.39.2-.66.2-.21,0-.4-.05-.56-.14-.16-.09-.29-.23-.38-.4s-.14-.37-.14-.6.05-.43.14-.6Z"/><path d="m57.91,53.28h-1.68c.01.18.08.32.2.42s.26.16.43.16c.25,0,.42-.1.52-.31h.49c-.07.2-.19.37-.36.5-.17.13-.39.19-.65.19-.21,0-.4-.05-.57-.14-.17-.09-.3-.23-.39-.4s-.14-.37-.14-.6.05-.43.14-.6c.09-.17.22-.3.39-.4.17-.09.36-.14.57-.14s.39.05.56.14c.16.09.29.22.38.38s.14.35.14.57c0,.08,0,.16-.02.22Zm-.46-.37c0-.17-.06-.3-.18-.4-.12-.1-.26-.15-.44-.15-.16,0-.29.05-.4.15-.11.1-.18.24-.2.41h1.22Z"/><path d="M58.71 54.16c-.14-.06-.25-.15-.33-.26s-.12-.23-.13-.36h.47c0 .09.05.17.13.23s.18.09.31.09.23-.03.3-.07c.07-.05.11-.11.11-.19s-.04-.14-.12-.18-.2-.08-.37-.13l-.4-.13a.73.73 0 0 1-.27-.2c-.08-.09-.11-.2-.11-.35a.51.51 0 0 1 .1-.32.71.71 0 0 1 .3-.23c.13-.06.28-.08.45-.08.25 0 .45.06.61.19a.67.67 0 0 1 .25.52h-.46c0-.1-.05-.18-.12-.24s-.17-.09-.29-.09-.21.02-.28.07c-.06.05-.1.11-.1.18 0 .06.02.11.06.15s.09.07.16.09l.27.09a2.94 2.94 0 0 1 .39.13.83.83 0 0 1 .27.19c.07.08.11.2.12.34 0 .13-.03.24-.1.34s-.17.18-.29.23-.28.08-.45.08-.33-.03-.47-.09z"/><path d="M60.84 54.16c-.14-.06-.25-.15-.33-.26s-.12-.23-.13-.36h.47c0 .09.05.17.13.23s.18.09.31.09.23-.03.3-.07c.07-.05.11-.11.11-.19s-.04-.14-.12-.18-.2-.08-.37-.13l-.4-.13a.73.73 0 0 1-.27-.2c-.08-.09-.11-.2-.11-.35a.58.58 0 0 1 .1-.32.71.71 0 0 1 .3-.23c.13-.06.28-.08.45-.08.25 0 .45.06.61.19a.67.67 0 0 1 .25.52h-.46c0-.1-.05-.18-.12-.24s-.17-.09-.29-.09-.21.02-.28.07c-.06.05-.1.11-.1.18 0 .06.02.11.06.15s.09.07.16.09l.27.09a2.94 2.94 0 0 1 .39.13.83.83 0 0 1 .27.19c.08.08.11.2.12.34 0 .13-.04.24-.1.34s-.17.18-.29.23c-.13.06-.28.08-.45.08s-.33-.03-.47-.09z"/><use xlink:href="#J"/><path d="M66.22 52.51c.09-.17.22-.3.38-.4a1.05 1.05 0 0 1 .53-.14c.14 0 .29.03.43.09a.85.85 0 0 1 .33.25v-1.06h.46v2.96h-.46v-.33a.88.88 0 0 1-.31.26c-.13.07-.28.1-.45.1a.99.99 0 0 1-.53-.15c-.16-.1-.28-.23-.38-.41-.09-.17-.14-.37-.14-.59s.05-.42.14-.59zm1.57.2c-.06-.11-.14-.2-.25-.26a.63.63 0 0 0-.33-.09.63.63 0 0 0-.33.09c-.1.06-.18.14-.25.25s-.09.24-.09.39.03.29.09.4.15.2.25.26a.63.63 0 0 0 .33.09.63.63 0 0 0 .33-.09c.1-.06.18-.14.25-.26s.09-.25.09-.4a.87.87 0 0 0-.09-.4zm1.18-1.08c-.06-.06-.08-.12-.08-.21s.03-.15.08-.21c.06-.06.12-.08.21-.08s.15.03.2.08c.06.06.08.12.08.21s-.03.15-.08.21c-.06.06-.12.08-.2.08s-.15-.03-.21-.08zm.43.38v2.2h-.46v-2.2h.46z"/><use xlink:href="#H" x="39.27"/><path d="M73.38 52.08c.13-.07.28-.1.45-.1.19 0 .37.05.53.14s.28.23.37.4.14.37.14.59-.05.42-.14.59-.21.31-.37.41-.33.15-.53.15c-.17 0-.32-.03-.45-.1a.8.8 0 0 1-.31-.26v.32h-.46v-2.96h.46v1.08c.08-.11.18-.19.32-.26zm.93.63c-.06-.11-.15-.19-.25-.25a.63.63 0 0 0-.33-.09c-.12 0-.22.03-.33.09a.63.63 0 0 0-.25.26c-.06.11-.09.24-.09.4s.03.28.09.4c.06.11.14.2.25.26a.63.63 0 0 0 .33.09.63.63 0 0 0 .33-.09c.1-.06.19-.15.25-.26s.09-.25.09-.4-.03-.28-.09-.39z"/><use xlink:href="#J" x="11.63"/><path d="M78.26 54.11c-.17-.09-.3-.23-.4-.4s-.14-.37-.14-.6.05-.42.15-.6c.1-.17.23-.31.4-.4a1.2 1.2 0 0 1 .57-.14 1.2 1.2 0 0 1 .57.14c.17.09.31.23.4.4.1.17.15.37.15.6s-.05.42-.15.6a1.05 1.05 0 0 1-.41.4c-.17.09-.37.14-.58.14s-.4-.05-.56-.14zm.89-.34c.1-.06.19-.14.25-.25s.1-.25.1-.41-.03-.3-.09-.41a.64.64 0 0 0-.24-.25c-.1-.06-.21-.08-.33-.08s-.22.03-.33.08a.64.64 0 0 0-.24.25c-.06.11-.09.25-.09.41 0 .24.06.42.18.55a.59.59 0 0 0 .46.19.73.73 0 0 0 .33-.08z"/><path d="M80.75 54.16c-.14-.06-.25-.15-.33-.26s-.12-.23-.13-.36h.47c0 .09.05.17.13.23s.18.09.31.09.23-.03.3-.07c.07-.05.11-.11.11-.19s-.04-.14-.12-.18-.2-.08-.37-.13l-.4-.13a.73.73 0 0 1-.27-.2c-.08-.09-.11-.2-.11-.35a.58.58 0 0 1 .1-.32.71.71 0 0 1 .3-.23c.13-.06.28-.08.45-.08.25 0 .45.06.61.19a.67.67 0 0 1 .25.52h-.46c0-.1-.05-.18-.12-.24s-.17-.09-.29-.09-.21.02-.28.07c-.06.05-.1.11-.1.18 0 .06.02.11.06.15s.09.07.16.09l.27.09a2.94 2.94 0 0 1 .39.13.83.83 0 0 1 .27.19c.07.08.11.2.12.34 0 .13-.04.24-.1.34s-.17.18-.29.23-.28.08-.45.08-.33-.03-.47-.09z"/><use xlink:href="#I" x="39.24"/><path d="M84.02 54.16c-.06-.06-.08-.13-.08-.21s.03-.15.08-.21c.06-.06.12-.08.21-.08s.15.03.2.08.08.12.08.21-.03.15-.08.21c-.06.06-.12.08-.2.08s-.15-.03-.21-.08zm.97-1.65c.09-.17.22-.3.38-.4.16-.09.35-.14.56-.14.27 0 .49.06.66.19s.29.31.35.54h-.49a.55.55 0 0 0-.19-.26.58.58 0 0 0-.33-.09c-.19 0-.33.07-.45.2-.11.13-.17.32-.17.55s.05.42.17.56c.11.13.26.2.45.2.26 0 .44-.12.52-.35h.49a.94.94 0 0 1-.36.53c-.18.13-.39.2-.66.2-.21 0-.4-.05-.56-.14a.98.98 0 0 1-.38-.4c-.09-.17-.14-.37-.14-.6s.05-.43.14-.6z"/><path d="M87.8 54.11c-.17-.09-.3-.23-.4-.4s-.14-.37-.14-.6.05-.42.15-.6c.1-.17.23-.31.4-.4a1.2 1.2 0 0 1 .57-.14 1.2 1.2 0 0 1 .57.14c.17.09.31.23.4.4.1.17.15.37.15.6s-.05.42-.15.6a1.05 1.05 0 0 1-.41.4c-.17.09-.37.14-.58.14s-.4-.05-.56-.14zm.89-.34c.1-.06.19-.14.25-.25s.1-.25.1-.41-.03-.3-.09-.41a.64.64 0 0 0-.24-.25c-.1-.06-.21-.08-.33-.08a.73.73 0 0 0-.33.08.64.64 0 0 0-.24.25c-.06.11-.09.25-.09.41 0 .24.06.42.18.55a.59.59 0 0 0 .46.19.73.73 0 0 0 .33-.08zm4.4-1.69a.71.71 0 0 1 .32.32c.08.14.12.31.12.51v1.3h-.45v-1.23c0-.2-.05-.35-.15-.45-.1-.11-.23-.16-.4-.16s-.31.05-.41.16c-.1.1-.15.26-.15.45v1.23h-.45v-1.23c0-.2-.05-.35-.15-.45-.1-.11-.23-.16-.4-.16s-.31.05-.41.16c-.1.1-.15.26-.15.45v1.23h-.46v-2.2h.46v.25c.08-.09.17-.16.28-.21a.91.91 0 0 1 .37-.08 1.02 1.02 0 0 1 .47.11.71.71 0 0 1 .32.32c.07-.13.17-.24.31-.32a.9.9 0 0 1 .46-.12 1.05 1.05 0 0 1 .47.11zm-71.6 9.85a1.12 1.12 0 0 1 .45-.44 1.22 1.22 0 0 1 .62-.16c.26 0 .49.06.69.19s.35.31.44.54h-.48a.67.67 0 0 0-.26-.29c-.11-.06-.24-.09-.39-.09-.16 0-.3.04-.43.11s-.22.18-.3.31a1.02 1.02 0 0 0-.11.47.99.99 0 0 0 .11.47c.07.14.17.24.3.31s.27.11.43.11c.15 0 .28-.03.39-.09s.2-.16.26-.29h.48c-.09.23-.24.41-.44.54s-.43.19-.69.19a1.23 1.23 0 0 1-.63-.16c-.19-.11-.34-.25-.45-.44a1.25 1.25 0 0 1-.17-.64 1.25 1.25 0 0 1 .17-.64z"/><use xlink:href="#K"/><use xlink:href="#L"/><use xlink:href="#M"/><use xlink:href="#N"/><path d="m32.33,62.3c.08-.15.19-.27.33-.35.14-.08.31-.12.49-.12.23,0,.43.06.58.17.15.11.26.27.31.47h-.43c-.04-.1-.09-.17-.17-.22-.08-.05-.17-.08-.29-.08-.16,0-.29.06-.39.17-.1.12-.15.28-.15.49s.05.37.15.49c.1.12.23.17.39.17.23,0,.38-.1.46-.3h.43c-.06.2-.16.35-.31.47-.15.12-.35.17-.57.17-.18,0-.35-.04-.49-.12s-.25-.2-.33-.35c-.08-.15-.12-.33-.12-.52s.04-.37.12-.52Z"/><use xlink:href="#M" x="5.78"/><path d="M38.4 61.86v1.93H38v-.23c-.06.08-.15.14-.25.19-.1.04-.21.07-.32.07-.15 0-.29-.03-.41-.09s-.21-.16-.28-.28-.1-.27-.1-.45v-1.13h.4v1.08c0 .17.04.3.13.4.09.09.2.14.35.14s.27-.05.35-.14c.09-.09.13-.22.13-.4v-1.08h.4zm.82 1.88a.72.72 0 0 1-.29-.22c-.07-.09-.11-.2-.11-.32h.41c0 .08.05.15.12.21.07.05.16.08.27.08s.2-.02.26-.06.09-.1.09-.17-.03-.13-.1-.16-.18-.07-.33-.12a2.79 2.79 0 0 1-.35-.12.66.66 0 0 1-.24-.17c-.07-.08-.1-.18-.1-.3 0-.1.03-.2.09-.28a.67.67 0 0 1 .26-.2c.11-.05.24-.07.39-.07.22 0 .4.06.53.17a.57.57 0 0 1 .21.45h-.4c0-.09-.04-.16-.1-.21s-.15-.08-.26-.08-.19.02-.24.06c-.06.04-.08.09-.08.16 0 .05.02.09.06.13s.08.06.14.08l.24.08.34.11c.09.04.17.09.23.17.07.08.1.17.1.3 0 .11-.03.21-.09.29-.06.09-.15.15-.26.2s-.24.07-.39.07a1.07 1.07 0 0 1-.41-.08zm1.55-1.47s-.07-.11-.07-.18.02-.13.07-.18.11-.07.18-.07.13.02.18.07.07.11.07.18-.02.13-.07.18-.11.07-.18.07-.13-.02-.18-.07zm0 1.47s-.07-.11-.07-.18.02-.13.07-.18.11-.07.18-.07.13.02.18.07.07.11.07.18-.02.13-.07.18-.11.07-.18.07-.13-.02-.18-.07z"/><use xlink:href="#N" x="12.59"/><path d="M44.92 62.3a.86.86 0 0 1 .33-.35.9.9 0 0 1 .46-.12c.13 0 .25.03.37.08a.72.72 0 0 1 .29.22v-.93h.4v2.59h-.4v-.29a.87.87 0 0 1-.67.32.82.82 0 0 1-.46-.13c-.14-.08-.25-.2-.33-.36-.08-.15-.12-.33-.12-.52a1.04 1.04 0 0 1 .12-.51zm1.38.17a.58.58 0 0 0-.22-.22c-.09-.05-.18-.08-.29-.08a.49.49 0 0 0-.29.08.58.58 0 0 0-.22.22.74.74 0 0 0-.08.34c0 .13.03.25.08.35a.61.61 0 0 0 .22.23c.09.05.18.08.29.08s.2-.03.29-.08a.61.61 0 0 0 .22-.23c.05-.1.08-.21.08-.35s-.03-.25-.08-.35zm3.75-.55c.12.06.21.16.28.28s.1.27.1.45v1.14h-.4v-1.08c0-.17-.04-.3-.13-.4-.09-.09-.2-.14-.35-.14a.49.49 0 0 0-.36.14c-.09.09-.13.22-.13.4v1.08h-.4v-1.08c0-.17-.04-.3-.13-.4-.09-.09-.2-.14-.35-.14s-.27.05-.35.14c-.09.09-.13.22-.13.4v1.08h-.4v-1.93h.4v.22c.06-.08.15-.14.25-.19.1-.04.21-.07.32-.07.15 0 .29.03.41.1a.75.75 0 0 1 .28.28.66.66 0 0 1 .27-.28c.12-.07.26-.1.4-.1.15 0 .29.03.41.09z"/><use xlink:href="#O"/><use xlink:href="#L" x="25.47"/><path d="M56.63 61.68a1.09 1.09 0 0 1 .44.41c.1.18.15.38.15.61a1.4 1.4 0 0 1-.1.54c-.06.17-.16.31-.28.42s-.26.16-.42.16c-.12 0-.21-.03-.28-.08s-.11-.13-.13-.22a.73.73 0 0 1-.27.22c-.11.05-.22.08-.34.08-.18 0-.32-.05-.42-.16s-.15-.26-.15-.44.04-.34.11-.5c.07-.15.18-.28.31-.37s.28-.14.45-.14c.2 0 .35.07.43.21l.03-.17h.35l-.18 1v.13c0 .06.01.11.04.14s.07.05.13.05c.09 0 .16-.04.23-.13.06-.09.11-.2.14-.32a1.65 1.65 0 0 0 .05-.38c0-.3-.09-.52-.26-.68s-.42-.23-.75-.23a1.44 1.44 0 0 0-.74.2c-.22.13-.39.31-.51.54s-.19.48-.19.76c0 .3.09.53.27.68.18.16.43.23.76.23.22 0 .42-.04.58-.12l.05.27a1.8 1.8 0 0 1-.71.14 1.54 1.54 0 0 1-.67-.14c-.19-.1-.34-.23-.45-.41a1.23 1.23 0 0 1-.16-.61c0-.33.08-.64.23-.91a1.69 1.69 0 0 1 .65-.65 1.84 1.84 0 0 1 .93-.24c.27 0 .5.05.69.15zm-.83 1.75a.62.62 0 0 0 .19-.23.66.66 0 0 0 .07-.3.42.42 0 0 0-.09-.27c-.06-.07-.15-.11-.26-.11-.1 0-.19.03-.26.09-.08.06-.13.14-.17.24s-.06.2-.06.31.03.2.08.26.13.1.25.1a.44.44 0 0 0 .27-.09z"/><use xlink:href="#K" x="33.56"/><path d="M59.95 62.3a.86.86 0 0 1 .33-.35.9.9 0 0 1 .46-.12c.13 0 .25.03.37.08a.72.72 0 0 1 .29.22v-.93h.4v2.59h-.4v-.29a.87.87 0 0 1-.67.32.82.82 0 0 1-.46-.13c-.14-.08-.25-.2-.33-.36-.08-.15-.12-.33-.12-.52a1.04 1.04 0 0 1 .12-.51zm1.38.17c-.05-.1-.13-.17-.21-.22-.09-.05-.18-.08-.29-.08a.49.49 0 0 0-.29.08.58.58 0 0 0-.22.22.74.74 0 0 0-.08.34c0 .13.03.25.08.35a.61.61 0 0 0 .22.23c.09.05.18.08.29.08s.2-.03.29-.08.16-.13.21-.23.08-.21.08-.35-.03-.25-.08-.35z"/><use xlink:href="#O" x="11.39"/><path d="M64.64 61.92c.12.06.21.16.28.28s.1.27.1.45v1.14h-.4v-1.08c0-.17-.04-.3-.13-.4-.09-.09-.2-.14-.35-.14a.49.49 0 0 0-.36.14c-.09.09-.13.22-.13.4v1.08h-.4v-1.93h.4v.22c.06-.08.15-.14.25-.19a.71.71 0 0 1 .32-.07c.15 0 .29.03.41.09zm1.57 0a.86.86 0 0 1 .39-.09.9.9 0 0 1 .46.12.86.86 0 0 1 .33.35 1.08 1.08 0 0 1 .12.52 1.08 1.08 0 0 1-.12.52c-.08.15-.19.27-.33.36a.82.82 0 0 1-.46.13.87.87 0 0 1-.4-.09.67.67 0 0 1-.27-.22v.28h-.4v-2.59h.4v.95c.07-.09.16-.17.28-.23zm.81.55a.52.52 0 0 0-.22-.22c-.09-.05-.19-.08-.29-.08s-.2.03-.29.08a.66.66 0 0 0-.22.22c-.06.09-.08.21-.08.35s.03.25.08.35.13.17.22.23c.09.05.18.08.29.08s.2-.03.29-.08a.61.61 0 0 0 .22-.23.67.67 0 0 0 .08-.35.71.71 0 0 0-.08-.34zm1.23 1.23c-.15-.08-.26-.2-.35-.35s-.13-.33-.13-.52.04-.37.13-.52.2-.27.35-.35.32-.12.5-.12.35.04.5.12.27.2.35.35a1.11 1.11 0 0 1 .13.52c0 .19-.04.37-.13.52a.93.93 0 0 1-.36.35c-.15.08-.32.12-.51.12s-.35-.04-.49-.12zm.78-.3a.58.58 0 0 0 .22-.22c.06-.1.08-.22.08-.36s-.03-.26-.08-.36-.12-.17-.21-.22-.18-.07-.29-.07-.2.02-.29.07-.16.12-.21.22-.08.21-.08.36c0 .21.05.37.16.48s.24.17.4.17a.59.59 0 0 0 .29-.07z"/><use xlink:href="#K" x="45.97"/><path d="M72.66 63.74c-.12-.05-.21-.13-.29-.22-.07-.09-.11-.2-.11-.32h.41c0 .08.05.15.12.21.07.05.16.08.27.08s.2-.02.26-.06.09-.1.09-.17-.04-.13-.1-.16c-.07-.04-.18-.07-.33-.12a2.79 2.79 0 0 1-.35-.12.66.66 0 0 1-.24-.17c-.07-.08-.1-.18-.1-.3 0-.1.03-.2.09-.28a.67.67 0 0 1 .26-.2c.11-.05.24-.07.39-.07.22 0 .4.06.53.17a.57.57 0 0 1 .21.45h-.4c0-.09-.04-.16-.1-.21s-.15-.08-.26-.08-.19.02-.24.06-.08.09-.08.16c0 .05.02.09.06.13s.08.06.14.08l.24.08.34.11c.09.04.17.09.23.17.07.08.1.17.1.3 0 .11-.03.21-.09.29-.06.09-.15.15-.26.2s-.24.07-.39.07a1.07 1.07 0 0 1-.41-.08z"/><path d="m74.7,62.19v1.07c0,.07.02.12.05.16.03.03.09.05.17.05h.25v.33h-.32c-.18,0-.32-.04-.41-.13-.1-.08-.14-.22-.14-.41v-1.07h-.23v-.33h.23v-.48h.4v.48h.47v.33h-.47Z"/><path d="M75.52 63.74s-.07-.11-.07-.18.02-.13.07-.18.11-.07.18-.07.13.02.18.07.07.11.07.18-.02.13-.07.18-.11.07-.18.07-.13-.02-.18-.07zm.85-1.44a.86.86 0 0 1 .33-.35c.14-.08.31-.12.49-.12.23 0 .43.06.58.17a.82.82 0 0 1 .31.47h-.43c-.04-.1-.09-.17-.17-.22a.52.52 0 0 0-.29-.08c-.16 0-.29.06-.39.17-.1.12-.14.28-.14.49s.05.37.14.49c.1.12.23.17.39.17.23 0 .38-.1.46-.3h.43a.91.91 0 0 1-.31.47c-.15.12-.35.17-.57.17-.18 0-.35-.04-.49-.12a.86.86 0 0 1-.33-.35c-.08-.15-.12-.33-.12-.52s.04-.37.12-.52z"/><path d="M78.83 63.7c-.15-.08-.26-.2-.35-.35a1.11 1.11 0 0 1-.13-.52c0-.19.04-.37.13-.52s.2-.27.35-.35.32-.12.5-.12.35.04.5.12.27.2.35.35a1.11 1.11 0 0 1 .13.52c0 .19-.04.37-.13.52a.93.93 0 0 1-.36.35c-.15.08-.32.12-.51.12s-.35-.04-.49-.12zm.78-.3a.58.58 0 0 0 .22-.22c.05-.1.08-.22.08-.36s-.03-.26-.08-.36-.12-.17-.21-.22-.18-.07-.29-.07-.2.02-.29.07-.16.12-.21.22-.08.21-.08.36c0 .21.05.37.16.48s.24.17.4.17a.59.59 0 0 0 .29-.07zm3.85-1.48c.12.06.21.16.28.28s.1.27.1.45v1.14h-.4v-1.08c0-.17-.04-.3-.13-.4-.09-.09-.2-.14-.35-.14s-.27.05-.35.14c-.09.09-.13.22-.13.4v1.08h-.4v-1.08c0-.17-.04-.3-.13-.4-.09-.09-.21-.14-.35-.14s-.27.05-.36.14-.13.22-.13.4v1.08h-.4v-1.93h.4v.22a.79.79 0 0 1 .25-.19.71.71 0 0 1 .32-.07c.15 0 .29.03.41.1a.75.75 0 0 1 .28.28.66.66 0 0 1 .27-.28c.12-.07.26-.1.4-.1.15 0 .29.03.41.09z"/></g><defs><path id="B" d="m5.03,47.97c-.29-.17-.52-.4-.69-.7s-.25-.65-.25-1.05.09-.74.26-1.04c.17-.3.41-.54.71-.7s.63-.25,1-.25.7.08,1,.25.53.4.71.7c.17.3.26.65.26,1.04s-.09.74-.27,1.04c-.18.3-.42.54-.72.7s-.64.25-1.01.25-.69-.08-.99-.25Zm1.56-.59c.18-.1.33-.25.44-.44.11-.2.17-.43.17-.71s-.05-.52-.16-.71c-.11-.19-.25-.34-.43-.44s-.37-.15-.57-.15-.4.05-.57.15c-.17.1-.31.24-.42.44s-.15.43-.15.71c0,.42.11.74.32.96.21.23.48.34.8.34.21,0,.4-.05.58-.15Z"/><path id="C" d="M10.08 44.4c.19-.11.42-.16.69-.16v.83h-.2c-.31 0-.55.08-.71.24s-.24.43-.24.83v2.03h-.8v-3.86h.8v.56a1.22 1.22 0 0 1 .47-.46z"/><path id="D" d="m14.58,54.11c-.17-.09-.3-.23-.4-.4-.1-.17-.14-.37-.14-.6s.05-.42.15-.6c.1-.17.23-.31.4-.4.17-.09.36-.14.57-.14s.4.05.57.14c.17.09.31.23.4.4.1.17.15.37.15.6s-.05.42-.15.6c-.1.17-.24.31-.41.4-.17.09-.37.14-.58.14s-.4-.05-.56-.14Zm.89-.34c.1-.06.19-.14.25-.25.06-.11.1-.25.1-.41s-.03-.3-.09-.41c-.06-.11-.14-.19-.24-.25-.1-.06-.21-.08-.33-.08s-.23.03-.33.08c-.1.06-.18.14-.24.25-.06.11-.09.25-.09.41,0,.24.06.42.18.55.12.13.27.19.46.19.12,0,.23-.03.33-.08Z"/><path id="E" d="M18.74 52.01v2.2h-.46v-.26a.74.74 0 0 1-.28.21c-.12.05-.24.08-.37.08a1.05 1.05 0 0 1-.47-.11.71.71 0 0 1-.32-.32c-.08-.14-.12-.31-.12-.51V52h.45v1.23c0 .2.05.35.15.45.1.11.23.16.4.16s.31-.05.41-.16c.1-.1.15-.26.15-.45V52h.46z"/><path id="F" d="m20.37,52.51c.09-.17.22-.3.38-.4s.33-.14.53-.14c.17,0,.32.03.45.1.13.07.23.15.31.25v-.32h.46v2.2h-.46v-.33c-.08.1-.18.19-.32.26-.13.07-.29.1-.46.1-.19,0-.36-.05-.52-.15-.16-.1-.28-.23-.37-.41-.09-.17-.14-.37-.14-.59s.05-.42.14-.59Zm1.57.2c-.06-.11-.14-.2-.25-.26-.1-.06-.21-.09-.33-.09s-.23.03-.33.09c-.1.06-.18.14-.25.25s-.09.24-.09.39.03.29.09.4.15.2.25.26c.1.06.21.09.33.09s.23-.03.33-.09c.1-.06.18-.14.25-.26s.09-.25.09-.4-.03-.28-.09-.4Z"/><path id="G" d="m26.63,53.28h-1.68c.01.18.08.32.2.42s.26.16.43.16c.25,0,.42-.1.52-.31h.49c-.07.2-.19.37-.36.5-.17.13-.39.19-.65.19-.21,0-.4-.05-.57-.14-.17-.09-.3-.23-.39-.4s-.14-.37-.14-.6.05-.43.14-.6c.09-.17.22-.3.39-.4.17-.09.36-.14.57-.14s.39.05.56.14c.16.09.29.22.38.38.09.16.14.35.14.57,0,.08,0,.16-.02.22Zm-.46-.37c0-.17-.06-.3-.18-.4-.12-.1-.26-.15-.44-.15-.16,0-.29.05-.4.15-.11.1-.18.24-.2.41h1.22Z"/><path id="H" d="m32.31,52.08c.14.07.24.18.32.32.08.14.12.31.12.51v1.3h-.45v-1.23c0-.2-.05-.35-.15-.45-.1-.11-.23-.16-.4-.16s-.31.05-.41.16c-.1.1-.15.26-.15.45v1.23h-.46v-2.2h.46v.25c.07-.09.17-.16.29-.21s.24-.08.37-.08c.17,0,.33.04.47.11Z"/><path id="I" d="M43.85 52.38v1.22c0 .08.02.14.06.18s.1.05.2.05h.28v.38h-.36c-.21 0-.36-.05-.47-.14-.11-.1-.16-.25-.16-.47v-1.22h-.26v-.37h.26v-.55h.46v.55h.54v.37h-.54z"/><path id="J" d="M64.08 54.11c-.17-.09-.3-.23-.4-.4s-.14-.37-.14-.6.05-.42.15-.6c.1-.17.23-.31.4-.4a1.2 1.2 0 0 1 .57-.14 1.2 1.2 0 0 1 .57.14c.17.09.3.23.4.4s.15.37.15.6-.05.42-.15.6a1.05 1.05 0 0 1-.41.4c-.17.09-.37.14-.58.14s-.4-.05-.56-.14zm.89-.34c.1-.06.19-.14.25-.25s.1-.25.1-.41-.03-.3-.09-.41a.64.64 0 0 0-.24-.25c-.1-.06-.21-.08-.33-.08a.73.73 0 0 0-.33.08.64.64 0 0 0-.24.25c-.06.11-.09.25-.09.41 0 .24.06.42.18.55a.59.59 0 0 0 .46.19.73.73 0 0 0 .33-.08z"/><path id="K" d="M24.51 63.7c-.15-.08-.26-.2-.35-.35s-.13-.33-.13-.52.04-.37.13-.52.2-.27.35-.35.32-.12.5-.12.35.04.5.12.27.2.35.35c.09.15.13.33.13.52s-.04.37-.13.52a.93.93 0 0 1-.36.35c-.15.08-.32.12-.51.12s-.35-.04-.49-.12zm.78-.3a.58.58 0 0 0 .22-.22c.06-.1.08-.22.08-.36s-.03-.26-.08-.36-.12-.17-.21-.22-.18-.07-.29-.07-.2.02-.29.07-.16.12-.21.22-.08.21-.08.36c0 .21.05.37.16.48s.24.17.4.17a.59.59 0 0 0 .29-.07z"/><path id="L" d="m27.78,61.92c.12.06.21.16.28.28.07.12.1.27.1.45v1.14h-.4v-1.08c0-.17-.04-.3-.13-.4-.09-.09-.2-.14-.35-.14s-.27.05-.35.14c-.09.09-.13.22-.13.4v1.08h-.4v-1.93h.4v.22c.06-.08.15-.14.25-.19s.21-.07.32-.07c.15,0,.29.03.41.09Z"/><path id="M" d="m29.13,62.19v1.07c0,.07.02.12.05.16s.09.05.17.05h.24v.33h-.31c-.18,0-.32-.04-.41-.13-.1-.08-.14-.22-.14-.41v-1.07h-.23v-.33h.23v-.48h.4v.48h.47v.33h-.47Z"/><path id="N" d="m29.96,62.3c.08-.15.19-.27.33-.35.14-.08.29-.12.46-.12.15,0,.28.03.4.09.11.06.2.13.27.22v-.28h.4v1.93h-.4v-.29c-.07.09-.16.17-.28.23s-.25.09-.4.09c-.17,0-.32-.04-.46-.13-.14-.08-.25-.2-.33-.36-.08-.15-.12-.33-.12-.52s.04-.37.12-.51Zm1.38.17c-.06-.1-.13-.17-.22-.22-.09-.05-.18-.08-.29-.08s-.2.02-.29.08c-.09.05-.16.12-.22.22-.05.1-.08.21-.08.34s.03.25.08.35c.06.1.13.18.22.23s.18.08.29.08.2-.03.29-.08c.09-.05.16-.13.22-.23.05-.1.08-.21.08-.35s-.03-.25-.08-.35Z"/><path id="O" d="M50.97 61.53s-.07-.11-.07-.18.02-.13.07-.18.11-.07.18-.07.13.02.18.07.07.11.07.18-.02.13-.07.18-.11.07-.18.07-.13-.03-.18-.07zm.38.33v1.93h-.4v-1.93h.4z"/></defs></svg>
